<svg xmlns="http://www.w3.org/2000/svg" xmlns:xlink="http://www.w3.org/1999/xlink" width="35" height="35" viewBox="0 0 35 35" fill="none"><defs><rect id="path_0" x="0" y="0" width="35" height="35" /><rect id="path_1" x="0" y="0" width="35" height="32" /></defs><g opacity="1" transform="translate(0 0)  rotate(180 17.5 17.5)"><mask id="bg-mask-0" fill="white"><use xlink:href="#path_0"></use></mask><g mask="url(#bg-mask-0)" ><g opacity="1" transform="translate(0 2)  rotate(0 17.5 16)"><mask id="bg-mask-1" fill="white"><use xlink:href="#path_1"></use></mask><g mask="url(#bg-mask-1)" ><path id="分组 1" fill-rule="evenodd" style="fill:#FFFFFF" transform="translate(5 1)  rotate(0 14.376833232897996 15.000000390338107)" opacity="1" d="M7.38 1.22C6.62 2 6.21 3.05 6.25 4.14C6.24 6.31 5.4 8.39 3.9 9.97L3.08 10.77C2.76 11.05 2.41 11.32 2.06 11.57C1.44 11.9 0.92 12.39 0.55 13C0.01 13.91 -0.14 15.01 0.14 16.04C0.43 17.07 1.12 17.93 2.06 18.44C3.31 19.23 4.35 20.33 5.08 21.62C5.81 22.92 6.21 24.38 6.24 25.87C6.21 26.95 6.62 28 7.37 28.78C8.13 29.56 9.16 30 10.24 30C11.33 30 12.36 29.56 13.12 28.78C13.87 28 14.28 26.95 14.25 25.87C14.24 25.17 14.05 24.48 13.69 23.88C13.34 23.28 12.83 22.79 12.22 22.45L10.36 20.8C8.89 19.23 8.06 17.16 8.06 15.01C8.06 12.08 9.77 9.11 12.23 7.55C12.84 7.21 13.34 6.71 13.7 6.12C14.05 5.52 14.25 4.83 14.25 4.14C14.28 3.05 13.88 2 13.12 1.22C12.37 0.44 11.33 0 10.25 0C9.17 0 8.13 0.44 7.38 1.22Z M23.34 1.28C21.99 -0.08 19.87 -0.29 18.28 0.78C17.62 1.22 17.11 1.85 16.8 2.58C16.19 4.09 16.53 5.82 17.67 6.97C18.82 8.12 20.54 8.47 22.04 7.84C22.77 7.54 23.4 7.02 23.84 6.36C24.28 5.7 24.51 4.92 24.51 4.12C24.51 3.06 24.09 2.03 23.34 1.28Z M20.51 21.84C19.44 21.84 18.42 22.27 17.67 23.02C16.32 24.38 16.11 26.5 17.17 28.1C17.61 28.76 18.24 29.28 18.97 29.59C20.47 30.21 22.2 29.86 23.34 28.71C24.49 27.56 24.83 25.83 24.21 24.33C23.91 23.59 23.39 22.96 22.73 22.52C22.07 22.08 21.3 21.84 20.51 21.84L20.51 21.84Z M23.21 11.28C22.48 11.58 21.85 12.1 21.41 12.76C20.98 13.42 20.74 14.2 20.74 15C20.74 16.06 21.16 17.08 21.91 17.84C22.66 18.59 23.68 19.02 24.75 19.02C25.54 19.02 26.31 18.78 26.97 18.34C27.63 17.9 28.15 17.27 28.45 16.54C29.07 15.03 28.73 13.3 27.58 12.15C26.44 11 24.71 10.65 23.21 11.28Z M20.74 15C20.74 15 20.74 15 20.74 15C20.74 15 20.74 15 20.74 14.99L20.74 15Z " /><path id="路径 5" fill-rule="evenodd" style="fill:#FFFFFF" transform="translate(1 11.97)  rotate(0 4.005688393275458 4.024348428975894)" opacity="1" d="M1.78,0.68C1.12,1.12 0.61,1.75 0.3,2.48C-0.31,3.99 0.03,5.72 1.17,6.87C2.32,8.02 4.04,8.36 5.54,7.74C6.27,7.44 6.9,6.92 7.34,6.26C8.4,4.66 8.19,2.54 6.84,1.18C6.09,0.43 5.07,0 4.01,0C3.21,0 2.44,0.24 1.78,0.68Z " /></g></g></g></g></svg>